<svg id="Capa_1" data-name="Capa 1" xmlns="http://www.w3.org/2000/svg" xmlns:xlink="http://www.w3.org/1999/xlink" viewBox="0 0 200.04 75.34"><defs><style>.cls-1{fill:none;}.cls-2{clip-path:url(#clip-path);}.cls-3{fill:#fff;}</style><clipPath id="clip-path"><rect class="cls-1" x="0.04" y="0.03" width="200" height="75.28"/></clipPath></defs><g class="cls-2"><path class="cls-3" d="M59,37.69a2.91,2.91,0,0,1-.25-.42,12.14,12.14,0,0,0-3.88-5.41,13.22,13.22,0,0,0-5-2.53,22.22,22.22,0,0,0-6-.68H35.7c-.62,0-.65,0-.65.63v28c0,.58,0,.63.64.63,3.39,0,6.78,0,10.16,0a15.7,15.7,0,0,0,6.06-1.4l.19-.08a1.82,1.82,0,0,1,.33,0,.39.39,0,0,1-.08.3c-.67.79-1.34,1.58-2,2.37-.42.51-.86,1-1.33,1.47q-1.6,1.57-3.35,3a34.26,34.26,0,0,1-7,4.27c-1.42.63-2.83,1.28-4.3,1.78s-3.17.91-4.77,1.31c-1,.25-2,.45-3,.61s-2.11.27-3.17.38-2.06.23-3.09.3c-.83,0-1.67,0-2.5,0h-2c-.46,0-.57-.11-.57-.58V12.71c0-.67.05-.73.71-.73H45.49c.74,0,1.47.07,2.2.1.53,0,.73.45,1,.78.83,1.15,1.65,2.3,2.43,3.45a56.1,56.1,0,0,1,4.28,7.49,41.34,41.34,0,0,1,2.81,7.5,24.51,24.51,0,0,1,.86,5c0,.36.06.72.07,1.08C59.12,37.49,59,37.55,59,37.69Z"/><path class="cls-3" d="M78.68,38.93a31.71,31.71,0,0,0-1-5.63,27,27,0,0,0-2.1-5.51A25.73,25.73,0,0,0,72,22.54a27.16,27.16,0,0,0-6.09-5.12,32.54,32.54,0,0,0-6.24-2.92,37.79,37.79,0,0,0-6.72-1.69,1.15,1.15,0,0,1-.62-.36c-.52-.61-1-1.26-1.51-1.88-.8-1-1.6-2-2.44-2.94s-1.73-1.86-2.6-2.8a.6.6,0,0,1-.12-.24l0,0A3.16,3.16,0,0,0,46,3.28a3,3,0,0,0-.23-1.42A3.11,3.11,0,0,0,45,.71,3,3,0,0,0,43.68.08,3,3,0,0,0,41,.76a3,3,0,0,0-.83,1.17A3.12,3.12,0,0,0,40,3.35a3,3,0,0,0,.5,1.41,3.17,3.17,0,0,0,1.12,1,3.1,3.1,0,0,0,1.46.34,3.06,3.06,0,0,0,1.45-.4h.11a.67.67,0,0,1,.28.19c1.3,1.43,2.63,2.85,3.91,4.31.64.74,1.21,1.55,1.81,2.3A24.43,24.43,0,0,1,52.48,15c1.29,2,2.57,3.92,3.74,5.94A44.26,44.26,0,0,1,60,29.1a34.24,34.24,0,0,1,1.52,6.08,27,27,0,0,1,.44,5H62c-.13,1.3-.25,2.61-.41,3.91a23.45,23.45,0,0,1-1.49,5.77,29.2,29.2,0,0,1-3.4,6.29,60.35,60.35,0,0,1-3.85,5,32,32,0,0,1-5,4.61,37.93,37.93,0,0,1-5.85,3.65,37.22,37.22,0,0,1-7.49,2.83A49,49,0,0,1,29,73.34a57.72,57.72,0,0,1-6.43.45c-2,.06-4-.08-6-.15a23,23,0,0,1-2.35-.21c-1.68-.24-3.35-.51-5-.8-1-.17-2-.4-3-.58H6.1v-.37A3,3,0,0,0,5.58,70a3,3,0,0,0-1.36-1.12,3.15,3.15,0,0,0-1.77-.18,3.05,3.05,0,0,0-2.39,2.4,3,3,0,0,0,1.29,3.13,3.13,3.13,0,0,0,1.7.51,3.08,3.08,0,0,0,1.27-.27,2.93,2.93,0,0,0,1-.78.44.44,0,0,1,.2-.13.44.44,0,0,1,.23,0c1.26.28,2.52.58,3.79.79,1.11.19,2.24.33,3.36.47,1.29.17,2.58.35,3.87.45s2.41.11,3.62.1c1.85,0,3.71,0,5.57-.09a15.64,15.64,0,0,0,1.81-.19A28.21,28.21,0,0,1,31,74.7c4.85-.07,9.71-.08,14.56-.09a31.67,31.67,0,0,0,5.24-.44c1.49-.25,3-.47,4.47-.81a36.27,36.27,0,0,0,7.16-2.53,30.07,30.07,0,0,0,7-4.54,31.29,31.29,0,0,0,2.88-3,22,22,0,0,0,2.79-4,23.33,23.33,0,0,0,2.2-5.11c.43-1.55.84-3.11,1.12-4.69.24-1.29.29-2.61.4-3.92A41.69,41.69,0,0,0,78.68,38.93ZM43,4.74a1.66,1.66,0,0,1-.92-.28,1.68,1.68,0,0,1-.62-.75,1.66,1.66,0,0,1-.1-1,1.76,1.76,0,0,1,.46-.86,1.64,1.64,0,0,1,.85-.45,1.58,1.58,0,0,1,1,.09,1.67,1.67,0,0,1,.75.61,1.64,1.64,0,0,1,.28.93,1.69,1.69,0,0,1-.48,1.18A1.73,1.73,0,0,1,43,4.74ZM3.08,73.32A1.59,1.59,0,0,1,2.16,73a1.65,1.65,0,0,1-.62-.74,1.78,1.78,0,0,1-.09-1,1.59,1.59,0,0,1,.46-.85A1.64,1.64,0,0,1,2.76,70a1.58,1.58,0,0,1,1,.09,1.65,1.65,0,0,1,1,1.54,1.69,1.69,0,0,1-.49,1.18,1.62,1.62,0,0,1-.54.35,1.56,1.56,0,0,1-.64.13Z"/><path class="cls-3" d="M83.39,44.26a6.61,6.61,0,0,1,1-3.32,6.72,6.72,0,0,1,2.25-2.12,10.19,10.19,0,0,1,3.07-1.16,18.2,18.2,0,0,1,3.46-.34,25.68,25.68,0,0,1,3.16.22,10.06,10.06,0,0,1,2.94.87,5.86,5.86,0,0,1,2.17,1.78,5.11,5.11,0,0,1,.84,3V54a20.38,20.38,0,0,0,.16,2.7,4.8,4.8,0,0,0,.57,1.92H97.25c-.1-.32-.19-.65-.26-1s-.11-.68-.14-1a7.51,7.51,0,0,1-3.21,2,13,13,0,0,1-3.77.58,10.27,10.27,0,0,1-2.81-.36,6.41,6.41,0,0,1-2.25-1.15,5.34,5.34,0,0,1-1.5-1.93A6.43,6.43,0,0,1,82.77,53a6,6,0,0,1,.62-2.91A5.13,5.13,0,0,1,85,48.22a7.5,7.5,0,0,1,2.25-1,22.23,22.23,0,0,1,2.55-.54c.86-.14,1.73-.25,2.53-.33A15,15,0,0,0,94.53,46a4.08,4.08,0,0,0,1.52-.71,1.48,1.48,0,0,0,.43-.61,1.55,1.55,0,0,0,.1-.74,3.07,3.07,0,0,0-.3-1.46,2.18,2.18,0,0,0-.81-.84,3.17,3.17,0,0,0-1.15-.41,11.32,11.32,0,0,0-1.43-.09,4.39,4.39,0,0,0-2.65.72,3.16,3.16,0,0,0-.83,1.08,3.21,3.21,0,0,0-.32,1.33Zm13.16,4.22a2.74,2.74,0,0,1-.9.5,11.43,11.43,0,0,1-1.15.3c-.42.08-.85.15-1.31.2s-.91.12-1.36.2a10.56,10.56,0,0,0-1.26.32,3.7,3.7,0,0,0-1.09.54,2.65,2.65,0,0,0-.74.86,2.8,2.8,0,0,0-.28,1.33A2.58,2.58,0,0,0,88.74,54a2.1,2.1,0,0,0,.76.83,3.24,3.24,0,0,0,1.12.42,7.39,7.39,0,0,0,1.33.12,4.93,4.93,0,0,0,2.61-.58,3.82,3.82,0,0,0,1.37-1.34,4.49,4.49,0,0,0,.53-1.57c.05-.42.08-.85.09-1.28Z"/><path class="cls-3" d="M116.49,37.87v3.82h-4.17V52a2.78,2.78,0,0,0,.48,1.92,2.72,2.72,0,0,0,1.92.49,7,7,0,0,0,.93,0c.29,0,.57-.07.84-.12v4.41a12.39,12.39,0,0,1-1.6.16c-.58,0-1.16,0-1.73,0a15.26,15.26,0,0,1-2.52-.18,5.89,5.89,0,0,1-2.08-.7,3.73,3.73,0,0,1-1.43-1.49,5.23,5.23,0,0,1-.52-2.53V41.69h-3.46V37.87h3.46V31.65h5.7v6.22Z"/><path class="cls-3" d="M118.76,44.26a6.63,6.63,0,0,1,1-3.32A6.91,6.91,0,0,1,122,38.82a10.19,10.19,0,0,1,3.07-1.16,18.28,18.28,0,0,1,3.46-.34,25.84,25.84,0,0,1,3.17.22,9.91,9.91,0,0,1,2.93.87,5.78,5.78,0,0,1,2.17,1.78,5,5,0,0,1,.84,3V54a24.45,24.45,0,0,0,.16,2.7,5,5,0,0,0,.58,1.92h-5.82c-.1-.32-.19-.65-.26-1a8.92,8.92,0,0,1-.14-1,7.51,7.51,0,0,1-3.21,2,13,13,0,0,1-3.77.58,10.33,10.33,0,0,1-2.77-.37,6.32,6.32,0,0,1-2.25-1.15,5.15,5.15,0,0,1-1.51-1.92,6.63,6.63,0,0,1-.54-2.78,6.15,6.15,0,0,1,.62-2.89,5.22,5.22,0,0,1,1.6-1.83,7.5,7.5,0,0,1,2.25-1,22.23,22.23,0,0,1,2.55-.54c.85-.14,1.7-.25,2.53-.33A15,15,0,0,0,129.9,46a3.87,3.87,0,0,0,1.54-.71,1.48,1.48,0,0,0,.43-.61,1.51,1.51,0,0,0,.09-.73,3,3,0,0,0-.3-1.47,2.15,2.15,0,0,0-.8-.84,3,3,0,0,0-1.16-.4,9.59,9.59,0,0,0-1.42-.1,4.36,4.36,0,0,0-2.65.72,3.2,3.2,0,0,0-.82,1.08,3.41,3.41,0,0,0-.31,1.33Zm13.17,4.22a2.89,2.89,0,0,1-.91.5,10.77,10.77,0,0,1-1.15.3c-.42.08-.85.15-1.3.2s-.91.12-1.37.2a10.56,10.56,0,0,0-1.26.32,3.7,3.7,0,0,0-1.09.54,2.65,2.65,0,0,0-.74.86,2.8,2.8,0,0,0-.28,1.33,2.58,2.58,0,0,0,.28,1.28,2.17,2.17,0,0,0,.76.83,3.44,3.44,0,0,0,1.16.42,7.28,7.28,0,0,0,1.32.12A4.93,4.93,0,0,0,130,54.8a3.82,3.82,0,0,0,1.37-1.34,4.49,4.49,0,0,0,.54-1.58,11.2,11.2,0,0,0,.1-1.29Z"/><path class="cls-3" d="M146.8,30l12,19.24h.08V30h5.9V58.66h-6.31L146.52,39.47h-.1V58.66h-5.88V30Z"/><path class="cls-3" d="M173.65,53.65a5.83,5.83,0,0,0,6.67.38,3.53,3.53,0,0,0,1.52-1.82h5a9.54,9.54,0,0,1-3.69,5.34,10.93,10.93,0,0,1-6,1.61,11.9,11.9,0,0,1-4.41-.79,9.17,9.17,0,0,1-3.33-2.23,10,10,0,0,1-2.11-3.46,12.5,12.5,0,0,1-.74-4.41,11.92,11.92,0,0,1,.76-4.34,10.16,10.16,0,0,1,2.16-3.45,10,10,0,0,1,3.36-2.31,10.8,10.8,0,0,1,4.31-.85,9.94,9.94,0,0,1,4.61,1A9,9,0,0,1,185,41.1,11.22,11.22,0,0,1,186.81,45a14.91,14.91,0,0,1,.4,4.61h-15A6,6,0,0,0,173.65,53.65Zm6.44-10.95a4,4,0,0,0-3.1-1.12,4.94,4.94,0,0,0-2.27.46,4.51,4.51,0,0,0-1.45,1.15,4,4,0,0,0-.76,1.45,5.74,5.74,0,0,0-.26,1.36h9.27a6.53,6.53,0,0,0-1.43-3.27Z"/><path class="cls-3" d="M199.86,37.87v3.82h-4.17V52a2.78,2.78,0,0,0,.48,1.92,2.77,2.77,0,0,0,1.93.49,6.85,6.85,0,0,0,.92,0c.29,0,.58-.07.84-.12v4.41a13.71,13.71,0,0,1-1.57.18c-.58,0-1.15,0-1.73,0a17.55,17.55,0,0,1-2.51-.18A5.89,5.89,0,0,1,192,58a3.79,3.79,0,0,1-1.43-1.49A5.28,5.28,0,0,1,190,54V41.69h-3.46V37.87H190V31.65h5.7v6.22Z"/></g></svg>