<svg width="259" height="249" viewBox="0 0 259 249" fill="none" xmlns="http://www.w3.org/2000/svg">
<g opacity="0.39">
<path d="M221.697 45.9271H238.707V8.50501C238.707 3.80798 234.899 0 230.202 0C225.505 0 221.697 3.80798 221.697 8.50501V45.9271Z" fill="#7BE893"/>
<path d="M187.682 45.9271H204.692V8.50501C204.692 3.80798 200.884 0 196.187 0C191.49 0 187.682 3.80798 187.682 8.50501V45.9271Z" fill="#7BE893"/>
<path d="M153.648 45.9271H170.658V8.50501C170.658 3.80798 166.85 0 162.153 0C157.456 0 153.648 3.80798 153.648 8.50501V45.9271Z" fill="#7BE893"/>
<path d="M119.633 45.9271H136.643V8.50501C136.643 3.80798 132.835 0 128.138 0C123.441 0 119.633 3.80798 119.633 8.50501V45.9271Z" fill="#7BE893"/>
<path d="M85.6172 45.9271H102.627V8.50501C102.627 3.80798 98.8192 0 94.1222 0C89.4252 0 85.6172 3.80798 85.6172 8.50501V45.9271Z" fill="#7BE893"/>
<path d="M51.6035 45.9271H68.6135V8.50501C68.6135 3.80798 64.8056 0 60.1085 0C55.4115 0 51.6035 3.80798 51.6035 8.50501V45.9271Z" fill="#7BE893"/>
<path d="M230.202 290.304C234.899 290.304 238.707 286.496 238.707 281.799V244.376H221.697V281.799C221.697 286.496 225.505 290.304 230.202 290.304Z" fill="#7BE893"/>
<path d="M196.187 290.304C200.884 290.304 204.692 286.496 204.692 281.799V244.376H187.682V281.799C187.682 286.496 191.49 290.304 196.187 290.304Z" fill="#7BE893"/>
<path d="M162.153 290.304C166.85 290.304 170.658 286.496 170.658 281.799V244.376H153.648V281.799C153.648 286.496 157.456 290.304 162.153 290.304Z" fill="#7BE893"/>
<path d="M128.138 290.306C132.835 290.306 136.643 286.498 136.643 281.801V244.379H119.633V281.801C119.633 286.498 123.441 290.306 128.138 290.306Z" fill="#7BE893"/>
<path d="M94.1222 290.306C98.8192 290.306 102.627 286.498 102.627 281.801V244.379H85.6172V281.801C85.6172 286.498 89.4252 290.306 94.1222 290.306Z" fill="#7BE893"/>
<path d="M60.1085 290.306C64.8056 290.306 68.6135 286.498 68.6135 281.801V244.379H51.6035V281.801C51.6035 286.498 55.4115 290.306 60.1085 290.306Z" fill="#7BE893"/>
<path d="M8.50501 68.6082H45.9271V51.5981H8.50501C3.80798 51.5981 0 55.4061 0 60.1032C0 64.8002 3.80798 68.6082 8.50501 68.6082Z" fill="#7BE893"/>
<path d="M8.50501 102.628H45.9271V85.6177H8.50501C3.80798 85.6177 0 89.4257 0 94.1227C0 98.8197 3.80798 102.628 8.50501 102.628Z" fill="#7BE893"/>
<path d="M8.50501 136.648H45.9271V119.638H8.50501C3.80798 119.638 0 123.446 0 128.143C0 132.84 3.80798 136.648 8.50501 136.648Z" fill="#7BE893"/>
<path d="M8.50501 170.668H45.9271V153.658H8.50501C3.80798 153.658 0 157.466 0 162.163C0 166.86 3.80798 170.668 8.50501 170.668Z" fill="#7BE893"/>
<path d="M8.50501 204.687H45.9271V187.677H8.50501C3.80798 187.677 0 191.485 0 196.182C0 200.879 3.80798 204.687 8.50501 204.687Z" fill="#7BE893"/>
<path d="M8.50501 238.707H45.9271V221.697H8.50501C3.80798 221.697 0 225.505 0 230.202C0 234.899 3.80798 238.707 8.50501 238.707Z" fill="#7BE893"/>
<path d="M244.375 51.5981V68.6082H281.797C286.494 68.6082 290.302 64.8002 290.302 60.1032C290.302 55.4061 286.494 51.5981 281.797 51.5981H244.375Z" fill="#7BE893"/>
<path d="M244.375 102.628H281.797C286.494 102.628 290.302 98.8202 290.302 94.1232C290.302 89.4261 286.494 85.6182 281.797 85.6182H244.375V102.628Z" fill="#7BE893"/>
<path d="M244.375 136.648H281.797C286.494 136.648 290.302 132.84 290.302 128.143C290.302 123.446 286.494 119.638 281.797 119.638H244.375V136.648Z" fill="#7BE893"/>
<path d="M244.375 170.668H281.797C286.494 170.668 290.302 166.86 290.302 162.163C290.302 157.466 286.494 153.658 281.797 153.658H244.375V170.668Z" fill="#7BE893"/>
<path d="M244.375 204.687H281.797C286.494 204.687 290.302 200.879 290.302 196.182C290.302 191.485 286.494 187.677 281.797 187.677H244.375V204.687Z" fill="#7BE893"/>
<path d="M244.375 238.707H281.797C286.494 238.707 290.302 234.899 290.302 230.202C290.302 225.505 286.494 221.697 281.797 221.697H244.375V238.707Z" fill="#7BE893"/>
<path d="M252.891 28.9165H37.4308C32.7338 28.9165 28.9258 32.7245 28.9258 37.4215V252.882C28.9258 257.579 32.7338 261.387 37.4308 261.387H252.891C257.588 261.387 261.396 257.579 261.396 252.882V37.4215C261.396 32.7245 257.588 28.9165 252.891 28.9165Z" fill="#63DD7D"/>
<path d="M218.867 62.9365H71.4464C66.7494 62.9365 62.9414 66.7445 62.9414 71.4415V218.862C62.9414 223.559 66.7494 227.367 71.4464 227.367H218.867C223.564 227.367 227.372 223.559 227.372 218.862V71.4415C227.372 66.7445 223.564 62.9365 218.867 62.9365Z" fill="#7BE893"/>
<path d="M140.412 109.085C140.382 109.007 140.352 108.93 140.32 108.852C138.764 105.07 135.118 102.627 131.029 102.627C131.025 102.627 131.022 102.627 131.018 102.627C126.925 102.631 123.279 105.082 121.729 108.87C121.703 108.934 121.678 108.999 121.653 109.063L96.1043 176.145C94.4322 180.535 96.6356 185.449 101.025 187.12C105.415 188.793 110.329 186.589 112 182.199L116.277 170.97H145.586L149.815 182.175C151.1 185.581 154.336 187.68 157.773 187.68C158.771 187.68 159.786 187.503 160.775 187.13C165.169 185.471 167.388 180.565 165.729 176.17L140.412 109.085ZM122.756 153.961L130.999 132.318L139.167 153.961H122.756Z" fill="white"/>
<path d="M149.809 182.175C151.094 185.581 154.33 187.68 157.767 187.68C158.765 187.68 159.78 187.503 160.769 187.13C165.163 185.471 167.382 180.564 165.723 176.17L145.154 121.666V170.97H145.58L149.809 182.175Z" fill="white"/>
<path d="M186.263 102.627C181.566 102.627 177.758 106.435 177.758 111.132V179.173C177.758 183.87 181.566 187.678 186.263 187.678C190.96 187.678 194.768 183.87 194.768 179.173V111.132C194.768 106.435 190.96 102.627 186.263 102.627Z" fill="white"/>
</g>
</svg>
